<?xml version="1.0" standalone="no"?><?xml-stylesheet type="text/css" href="https://wps.processon.com/themes/default/wps/mind/icons/icons.css" ?><!DOCTYPE svg PUBLIC "-//W3C//DTD SVG 1.1//EN" "http://www.w3.org/Graphics/SVG/1.1/DTD/svg11.dtd"><svg id="SvgjsSvg1006" width="533" height="570" xmlns="http://www.w3.org/2000/svg" version="1.1" xmlns:xlink="http://www.w3.org/1999/xlink" xmlns:svgjs="http://svgjs.com/svgjs"><defs id="SvgjsDefs1007"><pattern patternUnits="userSpaceOnUse" id="pattern_mark_0" width="300" height="300"><text x="150" y="100" fill="rgba(229,229,229,0.8)" font-size="18" transform="rotate(-45, 150, 150)" style="dominant-baseline: middle; text-anchor: middle;"></text></pattern><pattern patternUnits="userSpaceOnUse" id="pattern_mark_1" width="300" height="300"><text x="150" y="200" fill="rgba(229,229,229,0.8)" font-size="18" transform="rotate(-45, 150, 150)" style="dominant-baseline: middle; text-anchor: middle;"></text></pattern><marker id="SvgjsMarker1077" markerWidth="13" markerHeight="9" refX="9.5" refY="4.5" viewBox="0 0 13 9" orient="auto" markerUnits="userSpaceOnUse" stroke-dasharray="0,0"><path id="SvgjsPath1078" d="M0,0 L13,4.5 L0,9 L0,0" fill="#358e90" stroke="#358e90" stroke-width="1"></path></marker><marker id="SvgjsMarker1081" markerWidth="13" markerHeight="9" refX="9.5" refY="4.5" viewBox="0 0 13 9" orient="auto" markerUnits="userSpaceOnUse" stroke-dasharray="0,0"><path id="SvgjsPath1082" d="M0,0 L13,4.5 L0,9 L0,0" fill="#358e90" stroke="#358e90" stroke-width="1"></path></marker><marker id="SvgjsMarker1085" markerWidth="13" markerHeight="9" refX="9.5" refY="4.5" viewBox="0 0 13 9" orient="auto" markerUnits="userSpaceOnUse" stroke-dasharray="0,0"><path id="SvgjsPath1086" d="M0,0 L13,4.5 L0,9 L0,0" fill="#358e90" stroke="#358e90" stroke-width="1"></path></marker><marker id="SvgjsMarker1089" markerWidth="13" markerHeight="9" refX="9.5" refY="4.5" viewBox="0 0 13 9" orient="auto" markerUnits="userSpaceOnUse" stroke-dasharray="0,0"><path id="SvgjsPath1090" d="M0,0 L13,4.5 L0,9 L0,0" fill="#358e90" stroke="#358e90" stroke-width="1"></path></marker><marker id="SvgjsMarker1093" markerWidth="13" markerHeight="9" refX="9.5" refY="4.5" viewBox="0 0 13 9" orient="auto" markerUnits="userSpaceOnUse" stroke-dasharray="0,0"><path id="SvgjsPath1094" d="M0,0 L13,4.5 L0,9 L0,0" fill="#358e90" stroke="#358e90" stroke-width="1"></path></marker><marker id="SvgjsMarker1097" markerWidth="13" markerHeight="9" refX="9.5" refY="4.5" viewBox="0 0 13 9" orient="auto" markerUnits="userSpaceOnUse" stroke-dasharray="0,0"><path id="SvgjsPath1098" d="M0,0 L13,4.5 L0,9 L0,0" fill="#358e90" stroke="#358e90" stroke-width="1"></path></marker><marker id="SvgjsMarker1101" markerWidth="13" markerHeight="9" refX="9.5" refY="4.5" viewBox="0 0 13 9" orient="auto" markerUnits="userSpaceOnUse" stroke-dasharray="0,0"><path id="SvgjsPath1102" d="M0,0 L13,4.5 L0,9 L0,0" fill="#358e90" stroke="#358e90" stroke-width="1"></path></marker><marker id="SvgjsMarker1105" markerWidth="13" markerHeight="9" refX="9.5" refY="4.5" viewBox="0 0 13 9" orient="auto" markerUnits="userSpaceOnUse" stroke-dasharray="0,0"><path id="SvgjsPath1106" d="M0,0 L13,4.5 L0,9 L0,0" fill="#358e90" stroke="#358e90" stroke-width="1"></path></marker><marker id="SvgjsMarker1109" markerWidth="13" markerHeight="9" refX="9.5" refY="4.5" viewBox="0 0 13 9" orient="auto" markerUnits="userSpaceOnUse" stroke-dasharray="0,0"><path id="SvgjsPath1110" d="M0,0 L13,4.5 L0,9 L0,0" fill="#358e90" stroke="#358e90" stroke-width="1"></path></marker><marker id="SvgjsMarker1125" markerWidth="13" markerHeight="9" refX="9.5" refY="4.5" viewBox="0 0 13 9" orient="auto" markerUnits="userSpaceOnUse" stroke-dasharray="0,0"><path id="SvgjsPath1126" d="M0,0 L13,4.5 L0,9 L0,0" fill="#358e90" stroke="#358e90" stroke-width="1"></path></marker><marker id="SvgjsMarker1129" markerWidth="13" markerHeight="9" refX="9.5" refY="4.5" viewBox="0 0 13 9" orient="auto" markerUnits="userSpaceOnUse" stroke-dasharray="0,0"><path id="SvgjsPath1130" d="M0,0 L13,4.5 L0,9 L0,0" fill="#358e90" stroke="#358e90" stroke-width="1"></path></marker></defs><rect id="svgbackgroundid" width="533" height="570" fill="transparent"></rect><rect id="SvgjsRect1009" width="533" height="570" fill="url(#pattern_mark_0)"></rect><rect id="SvgjsRect1010" width="533" height="570" fill="url(#pattern_mark_1)"></rect><g id="SvgjsG1011" transform="translate(60.5,25)"><path id="SvgjsPath1012" d="M 16.666666666666668 0L 134.33333333333334 0C 156.55555555555554 0 156.55555555555554 50 134.33333333333334 50L 16.666666666666668 50C -5.555555555555556 50 -5.555555555555556 0 16.666666666666668 0Z" stroke="rgba(53,142,144,1)" stroke-width="1.5" fill-opacity="1" fill="#fcf9ea"></path><g id="SvgjsG1013"><text id="SvgjsText1014" font-family="微软雅黑" text-anchor="middle" font-size="13px" width="131px" fill="#323232" font-weight="700" align="middle" lineHeight="125%" anchor="middle" family="微软雅黑" size="13px" weight="700" font-style="" opacity="1" y="14.375" transform="rotate(0)"><tspan id="SvgjsTspan1015" dy="16.25" x="75.5"><tspan id="SvgjsTspan1016" style="">VAR建模</tspan></tspan></text></g></g><g id="SvgjsG1017" transform="translate(25,111)"><path id="SvgjsPath1018" d="M 0 0L 222 0L 222 43L 0 43Z" stroke="rgba(53,142,144,1)" stroke-width="1.5" fill-opacity="1" fill="#fcf9ea"></path><g id="SvgjsG1019"><text id="SvgjsText1020" font-family="微软雅黑" text-anchor="middle" font-size="13px" width="202px" fill="#323232" font-weight="400" align="middle" lineHeight="125%" anchor="middle" family="微软雅黑" size="13px" weight="400" font-style="" opacity="1" y="10.875" transform="rotate(0)"><tspan id="SvgjsTspan1021" dy="16.25" x="111"><tspan id="SvgjsTspan1022" style="">残差自相关：对残差进行LM检验</tspan></tspan></text></g></g><g id="SvgjsG1023" transform="translate(25,180)"><path id="SvgjsPath1024" d="M 0 0L 222 0L 222 44L 0 44Z" stroke="rgba(53,142,144,1)" stroke-width="1.5" fill-opacity="1" fill="#fcf9ea"></path><g id="SvgjsG1025"><text id="SvgjsText1026" font-family="微软雅黑" text-anchor="middle" font-size="13px" width="202px" fill="#323232" font-weight="400" align="middle" lineHeight="125%" anchor="middle" family="微软雅黑" size="13px" weight="400" font-style="" opacity="1" y="11.375" transform="rotate(0)"><tspan id="SvgjsTspan1027" dy="16.25" x="111"><tspan id="SvgjsTspan1028" style="">平稳性检验：通过特征值检验</tspan></tspan></text></g></g><g id="SvgjsG1029" transform="translate(25,250)"><path id="SvgjsPath1030" d="M 0 0L 222 0L 222 70L 0 70Z" stroke="rgba(53,142,144,1)" stroke-width="1.5" fill-opacity="1" fill="#fcf9ea"></path><g id="SvgjsG1031"><text id="SvgjsText1032" font-family="微软雅黑" text-anchor="middle" font-size="13px" width="202px" fill="#323232" font-weight="400" align="middle" lineHeight="125%" anchor="middle" family="微软雅黑" size="13px" weight="400" font-style="" opacity="1" y="15.875" transform="rotate(0)"><tspan id="SvgjsTspan1033" dy="16.25" x="111"><tspan id="SvgjsTspan1034" style="">联合显著性：对每个方程及所有方</tspan></tspan><tspan id="SvgjsTspan1035" dy="16.25" x="111"><tspan id="SvgjsTspan1036" style="">程的各阶系数进行沃尔德检验</tspan></tspan></text></g></g><g id="SvgjsG1037" transform="translate(25,346)"><path id="SvgjsPath1038" d="M 0 0L 222 0L 222 39L 0 39Z" stroke="rgba(53,142,144,1)" stroke-width="1.5" fill-opacity="1" fill="#fcf9ea"></path><g id="SvgjsG1039"><text id="SvgjsText1040" font-family="微软雅黑" text-anchor="middle" font-size="13px" width="202px" fill="#323232" font-weight="400" align="middle" lineHeight="125%" anchor="middle" family="微软雅黑" size="13px" weight="400" font-style="" opacity="1" y="8.875" transform="rotate(0)"><tspan id="SvgjsTspan1041" dy="16.25" x="111"><tspan id="SvgjsTspan1042" style="">格兰杰因果检验</tspan></tspan></text></g></g><g id="SvgjsG1043" transform="translate(25,415)"><path id="SvgjsPath1044" d="M 0 0L 222 0L 222 39L 0 39Z" stroke="rgba(53,142,144,1)" stroke-width="1.5" fill-opacity="1" fill="#fcf9ea"></path><g id="SvgjsG1045"><text id="SvgjsText1046" font-family="微软雅黑" text-anchor="middle" font-size="13px" width="202px" fill="#323232" font-weight="400" align="middle" lineHeight="125%" anchor="middle" family="微软雅黑" size="13px" weight="400" font-style="" opacity="1" y="8.875" transform="rotate(0)"><tspan id="SvgjsTspan1047" dy="16.25" x="111"><tspan id="SvgjsTspan1048" style="">脉冲响应函数</tspan></tspan></text></g></g><g id="SvgjsG1049" transform="translate(286,385)"><path id="SvgjsPath1050" d="M 0 0L 222 0L 222 39L 0 39Z" stroke="rgba(53,142,144,1)" stroke-width="1.5" fill-opacity="1" fill="#fcf9ea"></path><g id="SvgjsG1051"><text id="SvgjsText1052" font-family="微软雅黑" text-anchor="middle" font-size="13px" width="202px" fill="#323232" font-weight="400" align="middle" lineHeight="125%" anchor="middle" family="微软雅黑" size="13px" weight="400" font-style="" opacity="1" y="8.875" transform="rotate(0)"><tspan id="SvgjsTspan1053" dy="16.25" x="111"><tspan id="SvgjsTspan1054" style="">脉冲响应图（未正交）</tspan></tspan></text></g></g><g id="SvgjsG1055" transform="translate(286,443)"><path id="SvgjsPath1056" d="M 0 0L 222 0L 222 39L 0 39Z" stroke="rgba(53,142,144,1)" stroke-width="1.5" fill-opacity="1" fill="#fcf9ea"></path><g id="SvgjsG1057"><text id="SvgjsText1058" font-family="微软雅黑" text-anchor="middle" font-size="13px" width="202px" fill="#323232" font-weight="400" align="middle" lineHeight="125%" anchor="middle" family="微软雅黑" size="13px" weight="400" font-style="" opacity="1" y="8.875" transform="rotate(0)"><tspan id="SvgjsTspan1059" dy="16.25" x="111"><tspan id="SvgjsTspan1060" style="">正交化脉冲响应图</tspan></tspan></text></g></g><g id="SvgjsG1061" transform="translate(25,495)"><path id="SvgjsPath1062" d="M 16.666666666666668 0L 205.33333333333334 0C 227.55555555555554 0 227.55555555555554 50 205.33333333333334 50L 16.666666666666668 50C -5.555555555555556 50 -5.555555555555556 0 16.666666666666668 0Z" stroke="rgba(53,142,144,1)" stroke-width="1.5" fill-opacity="1" fill="#fcf9ea"></path><g id="SvgjsG1063"><text id="SvgjsText1064" font-family="微软雅黑" text-anchor="middle" font-size="13px" width="202px" fill="#323232" font-weight="700" align="middle" lineHeight="125%" anchor="middle" family="微软雅黑" size="13px" weight="700" font-style="" opacity="1" y="5.875" transform="rotate(0)"><tspan id="SvgjsTspan1065" dy="16.25" x="111"><tspan id="SvgjsTspan1066" style="">计算被解释变量的未来n期的预测</tspan></tspan><tspan id="SvgjsTspan1067" dy="16.25" x="111"><tspan id="SvgjsTspan1068" style="">值</tspan></tspan></text></g></g><g id="SvgjsG1069" transform="translate(286,500.5)"><path id="SvgjsPath1070" d="M 0 0L 222 0L 222 39L 0 39Z" stroke="rgba(53,142,144,1)" stroke-width="1.5" fill-opacity="1" fill="#fcf9ea"></path><g id="SvgjsG1071"><text id="SvgjsText1072" font-family="微软雅黑" text-anchor="middle" font-size="13px" width="202px" fill="#323232" font-weight="400" align="middle" lineHeight="125%" anchor="middle" family="微软雅黑" size="13px" weight="400" font-style="" opacity="1" y="8.875" transform="rotate(0)"><tspan id="SvgjsTspan1073" dy="16.25" x="111"><tspan id="SvgjsTspan1074" style="">预测值画图</tspan></tspan></text></g></g><g id="SvgjsG1075"><path id="SvgjsPath1076" d="M136 75.75L136 93L136 93L136 108.30000000000001" stroke="#358e90" stroke-width="1.5" fill="none" marker-end="url(#SvgjsMarker1077)"></path></g><g id="SvgjsG1079"><path id="SvgjsPath1080" d="M136 154.75L136 167L136 167L136 177.3" stroke="#358e90" stroke-width="1.5" fill="none" marker-end="url(#SvgjsMarker1081)"></path></g><g id="SvgjsG1083"><path id="SvgjsPath1084" d="M136 224.75L136 237L136 237L136 247.3" stroke="#358e90" stroke-width="1.5" fill="none" marker-end="url(#SvgjsMarker1085)"></path></g><g id="SvgjsG1087"><path id="SvgjsPath1088" d="M136 320.75L136 333L136 333L136 343.3" stroke="#358e90" stroke-width="1.5" fill="none" marker-end="url(#SvgjsMarker1089)"></path></g><g id="SvgjsG1091"><path id="SvgjsPath1092" d="M136 385.75L136 400L136 400L136 412.29999999999995" stroke="#358e90" stroke-width="1.5" fill="none" marker-end="url(#SvgjsMarker1093)"></path></g><g id="SvgjsG1095"><path id="SvgjsPath1096" d="M247.75 434.5L266.5 434.5L266.5 404.5L283.29999999999995 404.5" stroke="#358e90" stroke-width="1.5" fill="none" marker-end="url(#SvgjsMarker1097)"></path></g><g id="SvgjsG1099"><path id="SvgjsPath1100" d="M247.75 434.5L266.5 434.5L266.5 462.5L283.29999999999995 462.5" stroke="#358e90" stroke-width="1.5" fill="none" marker-end="url(#SvgjsMarker1101)"></path></g><g id="SvgjsG1103"><path id="SvgjsPath1104" d="M247.75 520L266.5 520L266.5 520L283.29999999999995 520" stroke="#358e90" stroke-width="1.5" fill="none" marker-end="url(#SvgjsMarker1105)"></path></g><g id="SvgjsG1107"><path id="SvgjsPath1108" d="M136 454.75L136 474.5L136 474.5L136 492.29999999999995" stroke="#358e90" stroke-width="1.5" fill="none" marker-end="url(#SvgjsMarker1109)"></path></g><g id="SvgjsG1111" transform="translate(320,111)"><path id="SvgjsPath1112" d="M 0 0L 154 0L 154 43L 0 43Z" stroke="rgba(53,142,144,1)" stroke-width="1.5" fill-opacity="1" fill="#fcf9ea"></path><g id="SvgjsG1113"><text id="SvgjsText1114" font-family="微软雅黑" text-anchor="middle" font-size="13px" width="134px" fill="#323232" font-weight="400" align="middle" lineHeight="125%" anchor="middle" family="微软雅黑" size="13px" weight="400" font-style="" opacity="1" y="10.875" transform="rotate(0)"><tspan id="SvgjsTspan1115" dy="16.25" x="77"><tspan id="SvgjsTspan1116" style="">估计阶数</tspan></tspan></text></g></g><g id="SvgjsG1117" transform="translate(321.5,210)"><path id="SvgjsPath1118" d="M 16.666666666666668 0L 134.33333333333334 0C 156.55555555555554 0 156.55555555555554 50 134.33333333333334 50L 16.666666666666668 50C -5.555555555555556 50 -5.555555555555556 0 16.666666666666668 0Z" stroke="rgba(53,142,144,1)" stroke-width="1.5" fill-opacity="1" fill="#fcf9ea"></path><g id="SvgjsG1119"><text id="SvgjsText1120" font-family="微软雅黑" text-anchor="middle" font-size="13px" width="131px" fill="#323232" font-weight="700" align="middle" lineHeight="125%" anchor="middle" family="微软雅黑" size="13px" weight="700" font-style="" opacity="1" y="14.375" transform="rotate(0)"><tspan id="SvgjsTspan1121" dy="16.25" x="75.5"><tspan id="SvgjsTspan1122" style="">数据预处理</tspan></tspan></text></g></g><g id="SvgjsG1123"><path id="SvgjsPath1124" d="M397 209.25L397 182L397 182L397 156.7" stroke="#358e90" stroke-width="1.5" fill="none" marker-end="url(#SvgjsMarker1125)"></path></g><g id="SvgjsG1127"><path id="SvgjsPath1128" d="M397 110.25L397 50L214.2 50" stroke="#358e90" stroke-width="1.5" fill="none" marker-end="url(#SvgjsMarker1129)"></path></g><g id="normal_brand" transform="translate(201.5,309)"><text id="SvgjsText1132" font-family="Helvetica, Arial, sans-serif" style="transform:rotate(-30deg);opacity: 0.06; color:#000; font-family: Microsoft Yahei;"><tspan id="SvgjsTspan1133" font-size="26" dy="0" x="0"></tspan></text></g></svg>