<?xml version="1.0" standalone="no"?><?xml-stylesheet type="text/css" href="https://wps.processon.com/themes/default/wps/mind/icons/icons.css" ?><!DOCTYPE svg PUBLIC "-//W3C//DTD SVG 1.1//EN" "http://www.w3.org/Graphics/SVG/1.1/DTD/svg11.dtd"><svg xmlns="http://www.w3.org/2000/svg" xlink="http://www.w3.org/1999/xlink" id="mind-svg-view-con" version="1.1" width="892.1875px" height="1120.453125px" style="position: absolute; width: 892.188px; height: 1120.45px; transform-origin: 0px 0px;"><defs></defs><g id="svgbackgroundid"><defs></defs><rect x="0" y="0" width="892.1875" height="1120.453125" fill="transparent"></rect></g><g><defs><pattern patternUnits="userSpaceOnUse" id="pattern_mark_0" width="300" height="300"><text x="150" y="100" fill="rgb(170,170,170)" font-size="18" transform="rotate(-45, 150, 150)" style="dominant-baseline: middle; text-anchor: middle;"></text></pattern></defs><rect fill="url(#pattern_mark_0)" x="0" y="0" width="892.1875" height="1120.453125" id="rect_mark_0" pointer-events="none"></rect></g><g transform="translate(-9914, -9442)" id="sdjakdjak3"><defs></defs><g class="svg-topic-con" transform="translate(0.5,0.5)"><path part="right" sub="true" id="line_7224975a9bb60651" d="M 10000 9943.5 L 10044 9943.5 C 10084 9943.5 10084 9686.2265625 10105.5 9686.2265625" stroke="#A1633A" fill="none" stroke-width="2"></path><path part="right" sub="true" id="line_39788f99a532b2da" d="M 10000 9943.5 L 10044 9943.5 C 10084 9943.5 10084 10224.015625 10110 10224.015625" stroke="#A1633A" fill="none" stroke-width="2"></path></g><g class="svg-connection-con" transform="translate(0.5,0.5)"></g><g class="svg-freesums-con" transform="translate(0.5,0.5)"></g><g class="svg-freebos-con" transform="translate(0.5,0.5)"></g></g><g id="39788f99a532b2da"><rect x="196" y="763.078125" rx="19" ry="19" width="59" height="38" style="fill: #A1633A; stroke:#FFFFFF;stroke-width:0;"></rect><g><text text-anchor="start" align="top" anchor="start" font-size="16px" font-weight="normal" fill="rgb(255, 255, 255)" style="font-size:16px;font-family:'Microsoft YaHei',微软雅黑,Arial;color:#FFFFFF;font-style:normal;text-align:left;font-weight:normal;"><tspan x="208" y="787"><tspan dx="0">How</tspan></tspan></text></g></g><g id="d657027958605a59"><rect x="291.1875" y="474" rx="5px" ry="5px" width="82" height="30" style="fill: #E7EBED; stroke:#004E64;stroke-width:0;"></rect><g><text text-anchor="start" align="top" anchor="start" font-size="16px" font-weight="normal" fill="rgb(0, 78, 100)" style="font-size:16px;font-family:'Microsoft YaHei',微软雅黑,Arial;color:#004E64;font-style:normal;text-align:left;font-weight:normal;"><tspan x="300" y="493"><tspan dx="0">混合回归</tspan></tspan></text></g></g><g id="ea46f2dc88b02f55"><rect x="409.1875" y="474" rx="5px" ry="5px" width="130" height="30" style="fill: #E7EBED; stroke:#004E64;stroke-width:0;"></rect><g><text text-anchor="start" align="top" anchor="start" font-size="16px" font-weight="normal" fill="rgb(0, 78, 100)" style="font-size:16px;font-family:'Microsoft YaHei',微软雅黑,Arial;color:#004E64;font-style:normal;text-align:left;font-weight:normal;"><tspan x="418" y="493"><tspan dx="0">通常作为参照系</tspan></tspan></text></g></g><g id="b0ba9d7a602e56f6"><rect x="575.1875" y="474" rx="5px" ry="5px" width="64" height="30" style="fill: #E7EBED; stroke:#004E64;stroke-width:0;"></rect><g><text text-anchor="start" align="top" anchor="start" font-size="16px" font-weight="normal" fill="rgb(0, 78, 100)" style="font-size:16px;font-family:'Microsoft YaHei',微软雅黑,Arial;color:#004E64;font-style:normal;text-align:left;font-weight:normal;"><tspan x="584" y="493"><tspan dx="0">OLS法</tspan></tspan></text></g></g><g id="30b47db096364c5f"><rect x="291.1875" y="605.578125" rx="5px" ry="5px" width="114" height="30" style="fill: #E7EBED; stroke:#004E64;stroke-width:0;"></rect><g><text text-anchor="start" align="top" anchor="start" font-size="16px" font-weight="normal" fill="rgb(0, 78, 100)" style="font-size:16px;font-family:'Microsoft YaHei',微软雅黑,Arial;color:#004E64;font-style:normal;text-align:left;font-weight:normal;"><tspan x="300" y="625"><tspan dx="0">固定效应模型</tspan></tspan></text></g></g><g id="e8415c9bdc854692"><rect x="441.1875" y="553.71875" rx="5px" ry="5px" width="114" height="30" style="fill: #E7EBED; stroke:#004E64;stroke-width:0;"></rect><g><text text-anchor="start" align="top" anchor="start" font-size="16px" font-weight="normal" fill="rgb(0, 78, 100)" style="font-size:16px;font-family:'Microsoft YaHei',微软雅黑,Arial;color:#004E64;font-style:normal;text-align:left;font-weight:normal;"><tspan x="450" y="573"><tspan dx="0">个体固定效应</tspan></tspan></text></g></g><g id="92ad1e93af578a77"><rect x="591.1875" y="513.859375" rx="5px" ry="5px" width="98" height="30" style="fill: #E7EBED; stroke:#004E64;stroke-width:0;"></rect><g><text text-anchor="start" align="top" anchor="start" font-size="16px" font-weight="normal" fill="rgb(0, 78, 100)" style="font-size:16px;font-family:'Microsoft YaHei',微软雅黑,Arial;color:#004E64;font-style:normal;text-align:left;font-weight:normal;"><tspan x="600" y="533"><tspan dx="0">组内估计量</tspan></tspan></text></g></g><g id="4f9e865e3d0a9e6b"><rect x="591.1875" y="553.71875" rx="5px" ry="5px" width="74" height="30" style="fill: #E7EBED; stroke:#004E64;stroke-width:0;"></rect><g><text text-anchor="start" align="top" anchor="start" font-size="16px" font-weight="normal" fill="rgb(0, 78, 100)" style="font-size:16px;font-family:'Microsoft YaHei',微软雅黑,Arial;color:#004E64;font-style:normal;text-align:left;font-weight:normal;"><tspan x="600" y="573"><tspan dx="0">LSDV法</tspan></tspan></text></g></g><g id="cee496b634773ec8"><rect x="591.1875" y="593.578125" rx="5px" ry="5px" width="98" height="30" style="fill: #E7EBED; stroke:#004E64;stroke-width:0;"></rect><g><text text-anchor="start" align="top" anchor="start" font-size="16px" font-weight="normal" fill="rgb(0, 78, 100)" style="font-size:16px;font-family:'Microsoft YaHei',微软雅黑,Arial;color:#004E64;font-style:normal;text-align:left;font-weight:normal;"><tspan x="600" y="613"><tspan dx="0">一阶差分法</tspan></tspan></text></g></g><g id="e54ab43ac6879631"><rect x="441.1875" y="665.359375" rx="5px" ry="5px" width="114" height="30" style="fill: #E7EBED; stroke:#004E64;stroke-width:0;"></rect><g><text text-anchor="start" align="top" anchor="start" font-size="16px" font-weight="normal" fill="rgb(0, 78, 100)" style="font-size:16px;font-family:'Microsoft YaHei',微软雅黑,Arial;color:#004E64;font-style:normal;text-align:left;font-weight:normal;"><tspan x="450" y="685"><tspan dx="0">时间固定效应</tspan></tspan></text></g></g><g id="7e948e0531bc582c"><rect x="591.1875" y="645.4375" rx="5px" ry="5px" width="50" height="30" style="fill: #E7EBED; stroke:#004E64;stroke-width:0;"></rect><g><text text-anchor="start" align="top" anchor="start" font-size="16px" font-weight="normal" fill="rgb(0, 78, 100)" style="font-size:16px;font-family:'Microsoft YaHei',微软雅黑,Arial;color:#004E64;font-style:normal;text-align:left;font-weight:normal;"><tspan x="600" y="665"><tspan dx="0">双向</tspan></tspan></text></g></g><g id="fb7bf9560a81efa9"><rect x="677.1875" y="633.4375" rx="5px" ry="5px" width="185" height="54" style="fill: #E7EBED; stroke:#004E64;stroke-width:0;"></rect><g><text text-anchor="start" align="top" anchor="start" font-size="16px" font-weight="normal" fill="rgb(0, 78, 100)" style="font-size:16px;font-family:'Microsoft YaHei',微软雅黑,Arial;color:#004E64;font-style:normal;text-align:left;font-weight:normal;"><tspan x="686" y="653"><tspan dx="0">LSDV法</tspan></tspan></text></g><g><rect x="686.1875" y="663.296875" rx="3" ry="3" width="164" height="20" fill="#e78f49"></rect><text x="690.1875" y="677.296875" style="font-family: 微软雅黑;font-size:12px;fill:#fff">对每个时期定义一个虚拟变量</text></g></g><g id="deee9103a6eb9cc8"><rect x="591.1875" y="697.296875" rx="5px" ry="5px" width="50" height="30" style="fill: #E7EBED; stroke:#004E64;stroke-width:0;"></rect><g><text text-anchor="start" align="top" anchor="start" font-size="16px" font-weight="normal" fill="rgb(0, 78, 100)" style="font-size:16px;font-family:'Microsoft YaHei',微软雅黑,Arial;color:#004E64;font-style:normal;text-align:left;font-weight:normal;"><tspan x="600" y="717"><tspan dx="0">单向</tspan></tspan></text></g></g><g id="277f8e79811d9f9e"><rect x="677.1875" y="697.296875" rx="5px" ry="5px" width="178" height="30" style="fill: #E7EBED; stroke:#004E64;stroke-width:0;"></rect><g><text text-anchor="start" align="top" anchor="start" font-size="16px" font-weight="normal" fill="rgb(0, 78, 100)" style="font-size:16px;font-family:'Microsoft YaHei',微软雅黑,Arial;color:#004E64;font-style:normal;text-align:left;font-weight:normal;"><tspan x="686" y="717"><tspan dx="0">引入固定的时间趋势项</tspan></tspan></text></g></g><g id="4b1aa5adf77038b3"><rect x="291.1875" y="789.015625" rx="5px" ry="5px" width="114" height="30" style="fill: #E7EBED; stroke:#004E64;stroke-width:0;"></rect><g><text text-anchor="start" align="top" anchor="start" font-size="16px" font-weight="normal" fill="rgb(0, 78, 100)" style="font-size:16px;font-family:'Microsoft YaHei',微软雅黑,Arial;color:#004E64;font-style:normal;text-align:left;font-weight:normal;"><tspan x="300" y="808"><tspan dx="0">随机效应模型</tspan></tspan></text></g></g><g id="afc135cd340681a3"><rect x="441.1875" y="737.15625" rx="5px" ry="5px" width="89" height="54" style="fill: #E7EBED; stroke:#004E64;stroke-width:0;"></rect><g><text text-anchor="start" align="top" anchor="start" font-size="16px" font-weight="normal" fill="rgb(0, 78, 100)" style="font-size:16px;font-family:'Microsoft YaHei',微软雅黑,Arial;color:#004E64;font-style:normal;text-align:left;font-weight:normal;"><tspan x="450" y="757"><tspan dx="0">FGLS法</tspan></tspan></text></g><g><rect x="450.1875" y="767.015625" rx="3" ry="3" width="68" height="20" fill="#e78f49"></rect><text x="454.1875" y="781.015625" style="font-family: 微软雅黑;font-size:12px;fill:#fff">准离差模型</text></g></g><g id="9eb5bc0c3c217253"><rect x="441.1875" y="801.015625" rx="5px" ry="5px" width="114" height="30" style="fill: #E7EBED; stroke:#004E64;stroke-width:0;"></rect><g><text text-anchor="start" align="top" anchor="start" font-size="16px" font-weight="normal" fill="rgb(0, 78, 100)" style="font-size:16px;font-family:'Microsoft YaHei',微软雅黑,Arial;color:#004E64;font-style:normal;text-align:left;font-weight:normal;"><tspan x="450" y="820"><tspan dx="0">最大似然估计</tspan></tspan></text></g></g><g id="58aae1023cf80518"><rect x="441.1875" y="840.875" rx="5px" ry="5px" width="98" height="30" style="fill: #E7EBED; stroke:#004E64;stroke-width:0;"></rect><g><text text-anchor="start" align="top" anchor="start" font-size="16px" font-weight="normal" fill="rgb(0, 78, 100)" style="font-size:16px;font-family:'Microsoft YaHei',微软雅黑,Arial;color:#004E64;font-style:normal;text-align:left;font-weight:normal;"><tspan x="450" y="860"><tspan dx="0">组间估计量</tspan></tspan></text></g></g><g id="d274e52ae2f4648d"><rect x="301.1875" y="910.65625" rx="5px" ry="5px" width="130" height="30" style="fill: #E7EBED; stroke:#004E64;stroke-width:0;"></rect><g><text text-anchor="start" align="top" anchor="start" font-size="16px" font-weight="normal" fill="rgb(0, 78, 100)" style="font-size:16px;font-family:'Microsoft YaHei',微软雅黑,Arial;color:#004E64;font-style:normal;text-align:left;font-weight:normal;"><tspan x="310" y="930"><tspan dx="0">该用哪个模型？</tspan></tspan></text></g></g><g id="b54c89a2a13a9551"><rect x="467.1875" y="890.734375" rx="5px" ry="5px" width="122" height="30" style="fill: #E7EBED; stroke:#004E64;stroke-width:0;"></rect><g><text text-anchor="start" align="top" anchor="start" font-size="16px" font-weight="normal" fill="rgb(0, 78, 100)" style="font-size:16px;font-family:'Microsoft YaHei',微软雅黑,Arial;color:#004E64;font-style:normal;text-align:left;font-weight:normal;"><tspan x="476" y="910"><tspan dx="0">Hausman检验</tspan></tspan></text></g></g><g id="f55e04a5ad60906f"><rect x="625.375" y="890.734375" rx="5px" ry="5px" width="114" height="30" style="fill: #E7EBED; stroke:#004E64;stroke-width:0;"></rect><g><text text-anchor="start" align="top" anchor="start" font-size="16px" font-weight="normal" fill="rgb(0, 78, 100)" style="font-size:16px;font-family:'Microsoft YaHei',微软雅黑,Arial;color:#004E64;font-style:normal;text-align:left;font-weight:normal;"><tspan x="634" y="910"><tspan dx="0">扰动项同方差</tspan></tspan></text></g></g><g id="143ad5646362635a"><rect x="467.1875" y="930.59375" rx="5px" ry="5px" width="218" height="30" style="fill: #E7EBED; stroke:#004E64;stroke-width:0;"></rect><g><text text-anchor="start" align="top" anchor="start" font-size="16px" font-weight="normal" fill="rgb(0, 78, 100)" style="font-size:16px;font-family:'Microsoft YaHei',微软雅黑,Arial;color:#004E64;font-style:normal;text-align:left;font-weight:normal;"><tspan x="476" y="950"><tspan dx="0">异方差稳健的Hausman检验</tspan></tspan></text></g></g><g id="89b60bff49803608"><rect x="721.375" y="930.59375" rx="5px" ry="5px" width="114" height="30" style="fill: #E7EBED; stroke:#004E64;stroke-width:0;"></rect><g><text text-anchor="start" align="top" anchor="start" font-size="16px" font-weight="normal" fill="rgb(0, 78, 100)" style="font-size:16px;font-family:'Microsoft YaHei',微软雅黑,Arial;color:#004E64;font-style:normal;text-align:left;font-weight:normal;"><tspan x="730" y="950"><tspan dx="0">扰动项异方差</tspan></tspan></text></g></g><g id="be4c246408628bcc"><rect x="291.1875" y="1020.3125" rx="5px" ry="5px" width="82" height="30" style="fill: #E7EBED; stroke:#004E64;stroke-width:0;"></rect><g><text text-anchor="start" align="top" anchor="start" font-size="16px" font-weight="normal" fill="rgb(0, 78, 100)" style="font-size:16px;font-family:'Microsoft YaHei',微软雅黑,Arial;color:#004E64;font-style:normal;text-align:left;font-weight:normal;"><tspan x="300" y="1040"><tspan dx="0">拟合优度</tspan></tspan></text></g></g><g id="e63fa0cc8a021098"><rect x="409.1875" y="980.453125" rx="5px" ry="5px" width="50" height="30" style="fill: #E7EBED; stroke:#004E64;stroke-width:0;"></rect><g><text text-anchor="start" align="top" anchor="start" font-size="16px" font-weight="normal" fill="rgb(0, 78, 100)" style="font-size:16px;font-family:'Microsoft YaHei',微软雅黑,Arial;color:#004E64;font-style:normal;text-align:left;font-weight:normal;"><tspan x="418" y="1000"><tspan dx="0">整体</tspan></tspan></text></g></g><g id="b7a3f4b2f82b613a"><rect x="495.1875" y="980.453125" rx="5px" ry="5px" width="66" height="30" style="fill: #E7EBED; stroke:#004E64;stroke-width:0;"></rect><g><text text-anchor="start" align="top" anchor="start" font-size="16px" font-weight="normal" fill="rgb(0, 78, 100)" style="font-size:16px;font-family:'Microsoft YaHei',微软雅黑,Arial;color:#004E64;font-style:normal;text-align:left;font-weight:normal;"><tspan x="504" y="1000"><tspan dx="0">原模型</tspan></tspan></text></g></g><g id="75e4966d0e911e18"><rect x="409.1875" y="1020.3125" rx="5px" ry="5px" width="50" height="30" style="fill: #E7EBED; stroke:#004E64;stroke-width:0;"></rect><g><text text-anchor="start" align="top" anchor="start" font-size="16px" font-weight="normal" fill="rgb(0, 78, 100)" style="font-size:16px;font-family:'Microsoft YaHei',微软雅黑,Arial;color:#004E64;font-style:normal;text-align:left;font-weight:normal;"><tspan x="418" y="1040"><tspan dx="0">组内</tspan></tspan></text></g></g><g id="3e49f135de2b67d2"><rect x="495.1875" y="1020.3125" rx="5px" ry="5px" width="114" height="30" style="fill: #E7EBED; stroke:#004E64;stroke-width:0;"></rect><g><text text-anchor="start" align="top" anchor="start" font-size="16px" font-weight="normal" fill="rgb(0, 78, 100)" style="font-size:16px;font-family:'Microsoft YaHei',微软雅黑,Arial;color:#004E64;font-style:normal;text-align:left;font-weight:normal;"><tspan x="504" y="1040"><tspan dx="0">组内离差模型</tspan></tspan></text></g></g><g id="f657dce9c47a9f1e"><rect x="409.1875" y="1060.171875" rx="5px" ry="5px" width="50" height="30" style="fill: #E7EBED; stroke:#004E64;stroke-width:0;"></rect><g><text text-anchor="start" align="top" anchor="start" font-size="16px" font-weight="normal" fill="rgb(0, 78, 100)" style="font-size:16px;font-family:'Microsoft YaHei',微软雅黑,Arial;color:#004E64;font-style:normal;text-align:left;font-weight:normal;"><tspan x="418" y="1080"><tspan dx="0">组间</tspan></tspan></text></g></g><g id="cb253fa1d4c4b848"><rect x="495.1875" y="1060.171875" rx="5px" ry="5px" width="130" height="30" style="fill: #E7EBED; stroke:#004E64;stroke-width:0;"></rect><g><text text-anchor="start" align="top" anchor="start" font-size="16px" font-weight="normal" fill="rgb(0, 78, 100)" style="font-size:16px;font-family:'Microsoft YaHei',微软雅黑,Arial;color:#004E64;font-style:normal;text-align:left;font-weight:normal;"><tspan x="504" y="1080"><tspan dx="0">时间平均值模型</tspan></tspan></text></g></g><g id="7224975a9bb60651"><rect x="191.5" y="225.296875" rx="19" ry="19" width="65" height="38" style="fill: #A1633A; stroke:#FFFFFF;stroke-width:0;"></rect><g><text text-anchor="start" align="top" anchor="start" font-size="16px" font-weight="normal" fill="rgb(255, 255, 255)" style="font-size:16px;font-family:'Microsoft YaHei',微软雅黑,Arial;color:#FFFFFF;font-style:normal;text-align:left;font-weight:normal;"><tspan x="204" y="249"><tspan dx="0">What</tspan></tspan></text></g></g><g id="38d30faa7b091ced"><rect x="292.4375" y="49.921875" rx="5px" ry="5px" width="50" height="30" style="fill: #E7EBED; stroke:#004E64;stroke-width:0;"></rect><g><text text-anchor="start" align="top" anchor="start" font-size="16px" font-weight="normal" fill="rgb(0, 78, 100)" style="font-size:16px;font-family:'Microsoft YaHei',微软雅黑,Arial;color:#004E64;font-style:normal;text-align:left;font-weight:normal;"><tspan x="301" y="69"><tspan dx="0">定义</tspan></tspan></text></g></g><g id="c937fe30f0efa8a2"><rect x="378.4375" y="49.921875" rx="5px" ry="5px" width="274" height="30" style="fill: #E7EBED; stroke:#004E64;stroke-width:0;"></rect><g><text text-anchor="start" align="top" anchor="start" font-size="16px" font-weight="normal" fill="rgb(0, 78, 100)" style="font-size:16px;font-family:'Microsoft YaHei',微软雅黑,Arial;color:#004E64;font-style:normal;text-align:left;font-weight:normal;"><tspan x="387" y="69"><tspan dx="0">在一段时间内跟踪同一组个体的数据</tspan></tspan></text></g></g><g id="d54d5625c3e2fb50"><rect x="688.4375" y="30" rx="5px" ry="5px" width="76" height="30" style="fill: #E7EBED; stroke:#004E64;stroke-width:0;"></rect><g><text text-anchor="start" align="top" anchor="start" font-size="16px" font-weight="normal" fill="rgb(0, 78, 100)" style="font-size:16px;font-family:'Microsoft YaHei',微软雅黑,Arial;color:#004E64;font-style:normal;text-align:left;font-weight:normal;"><tspan x="697" y="49"><tspan dx="0">n位个体</tspan></tspan></text></g></g><g id="15e5eb050ab93ebd"><rect x="688.4375" y="69.859375" rx="5px" ry="5px" width="75" height="30" style="fill: #E7EBED; stroke:#004E64;stroke-width:0;"></rect><g><text text-anchor="start" align="top" anchor="start" font-size="16px" font-weight="normal" fill="rgb(0, 78, 100)" style="font-size:16px;font-family:'Microsoft YaHei',微软雅黑,Arial;color:#004E64;font-style:normal;text-align:left;font-weight:normal;"><tspan x="697" y="89"><tspan dx="0">T个时期</tspan></tspan></text></g></g><g id="3589acd3b082525c"><rect x="292.4375" y="209.359375" rx="5px" ry="5px" width="50" height="30" style="fill: #E7EBED; stroke:#004E64;stroke-width:0;"></rect><g><text text-anchor="start" align="top" anchor="start" font-size="16px" font-weight="normal" fill="rgb(0, 78, 100)" style="font-size:16px;font-family:'Microsoft YaHei',微软雅黑,Arial;color:#004E64;font-style:normal;text-align:left;font-weight:normal;"><tspan x="301" y="229"><tspan dx="0">分类</tspan></tspan></text></g></g><g id="974a165d0312d54f"><rect x="378.4375" y="129.640625" rx="5px" ry="5px" width="117" height="30" style="fill: #E7EBED; stroke:#004E64;stroke-width:0;"></rect><g><text text-anchor="start" align="top" anchor="start" font-size="16px" font-weight="normal" fill="rgb(0, 78, 100)" style="font-size:16px;font-family:'Microsoft YaHei',微软雅黑,Arial;color:#004E64;font-style:normal;text-align:left;font-weight:normal;"><tspan x="387" y="149"><tspan dx="0">按n、T的长度</tspan></tspan></text></g></g><g id="4d840981465a1ea7"><rect x="531.46875" y="109.71875" rx="5px" ry="5px" width="66" height="30" style="fill: #E7EBED; stroke:#004E64;stroke-width:0;"></rect><g><text text-anchor="start" align="top" anchor="start" font-size="16px" font-weight="normal" fill="rgb(0, 78, 100)" style="font-size:16px;font-family:'Microsoft YaHei',微软雅黑,Arial;color:#004E64;font-style:normal;text-align:left;font-weight:normal;"><tspan x="540" y="129"><tspan dx="0">短面板</tspan></tspan></text></g></g><g id="24c6cd752fdcc0a9"><rect x="531.46875" y="149.578125" rx="5px" ry="5px" width="66" height="30" style="fill: #E7EBED; stroke:#004E64;stroke-width:0;"></rect><g><text text-anchor="start" align="top" anchor="start" font-size="16px" font-weight="normal" fill="rgb(0, 78, 100)" style="font-size:16px;font-family:'Microsoft YaHei',微软雅黑,Arial;color:#004E64;font-style:normal;text-align:left;font-weight:normal;"><tspan x="540" y="169"><tspan dx="0">长面板</tspan></tspan></text></g></g><g id="a4d6ac99935909df"><rect x="378.4375" y="209.359375" rx="5px" ry="5px" width="210" height="30" style="fill: #E7EBED; stroke:#004E64;stroke-width:0;"></rect><g><text text-anchor="start" align="top" anchor="start" font-size="16px" font-weight="normal" fill="rgb(0, 78, 100)" style="font-size:16px;font-family:'Microsoft YaHei',微软雅黑,Arial;color:#004E64;font-style:normal;text-align:left;font-weight:normal;"><tspan x="387" y="229"><tspan dx="0">按是否含被解释变量滞后值</tspan></tspan></text></g></g><g id="6a5c1c76d99fd652"><rect x="624.4375" y="189.4375" rx="5px" ry="5px" width="82" height="30" style="fill: #E7EBED; stroke:#004E64;stroke-width:0;"></rect><g><text text-anchor="start" align="top" anchor="start" font-size="16px" font-weight="normal" fill="rgb(0, 78, 100)" style="font-size:16px;font-family:'Microsoft YaHei',微软雅黑,Arial;color:#004E64;font-style:normal;text-align:left;font-weight:normal;"><tspan x="633" y="209"><tspan dx="0">动态面板</tspan></tspan></text></g></g><g id="593b99dd9179ce28"><rect x="624.4375" y="229.296875" rx="5px" ry="5px" width="82" height="30" style="fill: #E7EBED; stroke:#004E64;stroke-width:0;"></rect><g><text text-anchor="start" align="top" anchor="start" font-size="16px" font-weight="normal" fill="rgb(0, 78, 100)" style="font-size:16px;font-family:'Microsoft YaHei',微软雅黑,Arial;color:#004E64;font-style:normal;text-align:left;font-weight:normal;"><tspan x="633" y="249"><tspan dx="0">静态面板</tspan></tspan></text></g></g><g id="30698106488fd0b0"><rect x="378.4375" y="289.078125" rx="5px" ry="5px" width="258" height="30" style="fill: #E7EBED; stroke:#004E64;stroke-width:0;"></rect><g><text text-anchor="start" align="top" anchor="start" font-size="16px" font-weight="normal" fill="rgb(0, 78, 100)" style="font-size:16px;font-family:'Microsoft YaHei',微软雅黑,Arial;color:#004E64;font-style:normal;text-align:left;font-weight:normal;"><tspan x="387" y="309"><tspan dx="0">按每个时期样本中的个体是否相同</tspan></tspan></text></g></g><g id="bceb20e85b6fa5b1"><rect x="672.4375" y="269.15625" rx="5px" ry="5px" width="82" height="30" style="fill: #E7EBED; stroke:#004E64;stroke-width:0;"></rect><g><text text-anchor="start" align="top" anchor="start" font-size="16px" font-weight="normal" fill="rgb(0, 78, 100)" style="font-size:16px;font-family:'Microsoft YaHei',微软雅黑,Arial;color:#004E64;font-style:normal;text-align:left;font-weight:normal;"><tspan x="681" y="289"><tspan dx="0">平衡面板</tspan></tspan></text></g></g><g id="ba47bd465c4346d7"><rect x="672.4375" y="309.015625" rx="5px" ry="5px" width="98" height="30" style="fill: #E7EBED; stroke:#004E64;stroke-width:0;"></rect><g><text text-anchor="start" align="top" anchor="start" font-size="16px" font-weight="normal" fill="rgb(0, 78, 100)" style="font-size:16px;font-family:'Microsoft YaHei',微软雅黑,Arial;color:#004E64;font-style:normal;text-align:left;font-weight:normal;"><tspan x="681" y="328"><tspan dx="0">非平衡面板</tspan></tspan></text></g></g><g id="66e22076c972922b"><rect x="292.4375" y="388.734375" rx="5px" ry="5px" width="50" height="30" style="fill: #E7EBED; stroke:#004E64;stroke-width:0;"></rect><g><text text-anchor="start" align="top" anchor="start" font-size="16px" font-weight="normal" fill="rgb(0, 78, 100)" style="font-size:16px;font-family:'Microsoft YaHei',微软雅黑,Arial;color:#004E64;font-style:normal;text-align:left;font-weight:normal;"><tspan x="301" y="408"><tspan dx="0">特点</tspan></tspan></text></g></g><g id="2945a065bfaec8f9"><rect x="378.4375" y="348.875" rx="5px" ry="5px" width="130" height="30" style="fill: #E7EBED; stroke:#004E64;stroke-width:0;"></rect><g><text text-anchor="start" align="top" anchor="start" font-size="16px" font-weight="normal" fill="rgb(0, 78, 100)" style="font-size:16px;font-family:'Microsoft YaHei',微软雅黑,Arial;color:#004E64;font-style:normal;text-align:left;font-weight:normal;"><tspan x="387" y="368"><tspan dx="0">可解决遗漏变量</tspan></tspan></text></g></g><g id="4a3977723b0d8420"><rect x="378.4375" y="388.734375" rx="5px" ry="5px" width="226" height="30" style="fill: #E7EBED; stroke:#004E64;stroke-width:0;"></rect><g><text text-anchor="start" align="top" anchor="start" font-size="16px" font-weight="normal" fill="rgb(0, 78, 100)" style="font-size:16px;font-family:'Microsoft YaHei',微软雅黑,Arial;color:#004E64;font-style:normal;text-align:left;font-weight:normal;"><tspan x="387" y="408"><tspan dx="0">提供多个个体动态行为的信息</tspan></tspan></text></g></g><g id="b8f7909cd6a7c800"><rect x="378.4375" y="428.59375" rx="5px" ry="5px" width="114" height="30" style="fill: #E7EBED; stroke:#004E64;stroke-width:0;"></rect><g><text text-anchor="start" align="top" anchor="start" font-size="16px" font-weight="normal" fill="rgb(0, 78, 100)" style="font-size:16px;font-family:'Microsoft YaHei',微软雅黑,Arial;color:#004E64;font-style:normal;text-align:left;font-weight:normal;"><tspan x="387" y="448"><tspan dx="0">样本容量较大</tspan></tspan></text></g></g><g transform="translate(196, 474)" id="sdjakdjak0"><g id="subline_39788f99a532b2da" transform="translate(0.5, 0.5)"><path id="line_d657027958605a59" d="M 59.1875 308.015625 L 59.1875 308.015625 C 84.1875 308.015625 84.1875 14.9296875 95.1875 14.9296875" p="39788f99a532b2da" stroke="#A1633A" stroke-linecap="round" fill="none" stroke-width="2"></path><path id="line_ea46f2dc88b02f55" d="M 177.1875 14.9296875 L 177.1875 14.9296875 C 202.1875 14.9296875 202.1875 14.9296875 213.1875 14.9296875" p="d657027958605a59" stroke="#A1633A" stroke-linecap="round" fill="none" stroke-width="2"></path><path id="line_b0ba9d7a602e56f6" d="M 343.1875 14.9296875 L 343.1875 14.9296875 C 368.1875 14.9296875 368.1875 14.9296875 379.1875 14.9296875" p="ea46f2dc88b02f55" stroke="#A1633A" stroke-linecap="round" fill="none" stroke-width="2"></path><path id="line_30b47db096364c5f" d="M 59.1875 308.015625 L 59.1875 308.015625 C 84.1875 308.015625 84.1875 146.5078125 95.1875 146.5078125" p="39788f99a532b2da" stroke="#A1633A" stroke-linecap="round" fill="none" stroke-width="2"></path><path id="line_e8415c9bdc854692" d="M 209.1875 146.5078125 L 209.1875 146.5078125 C 234.1875 146.5078125 234.1875 94.6484375 245.1875 94.6484375" p="30b47db096364c5f" stroke="#A1633A" stroke-linecap="round" fill="none" stroke-width="2"></path><path id="line_92ad1e93af578a77" d="M 359.1875 94.6484375 L 359.1875 94.6484375 C 384.1875 94.6484375 384.1875 54.7890625 395.1875 54.7890625" p="e8415c9bdc854692" stroke="#A1633A" stroke-linecap="round" fill="none" stroke-width="2"></path><path id="line_4f9e865e3d0a9e6b" d="M 359.1875 94.6484375 L 359.1875 94.6484375 C 384.1875 94.6484375 384.1875 94.6484375 395.1875 94.6484375" p="e8415c9bdc854692" stroke="#A1633A" stroke-linecap="round" fill="none" stroke-width="2"></path><path id="line_cee496b634773ec8" d="M 359.1875 94.6484375 L 359.1875 94.6484375 C 384.1875 94.6484375 384.1875 134.5078125 395.1875 134.5078125" p="e8415c9bdc854692" stroke="#A1633A" stroke-linecap="round" fill="none" stroke-width="2"></path><path id="line_e54ab43ac6879631" d="M 209.1875 146.5078125 L 209.1875 146.5078125 C 234.1875 146.5078125 234.1875 206.2890625 245.1875 206.2890625" p="30b47db096364c5f" stroke="#A1633A" stroke-linecap="round" fill="none" stroke-width="2"></path><path id="line_7e948e0531bc582c" d="M 359.1875 206.2890625 L 359.1875 206.2890625 C 384.1875 206.2890625 384.1875 186.3671875 395.1875 186.3671875" p="e54ab43ac6879631" stroke="#A1633A" stroke-linecap="round" fill="none" stroke-width="2"></path><path id="line_fb7bf9560a81efa9" d="M 445.1875 186.3671875 L 445.1875 186.3671875 C 470.1875 186.3671875 470.1875 186.3671875 481.1875 186.3671875" p="7e948e0531bc582c" stroke="#A1633A" stroke-linecap="round" fill="none" stroke-width="2"></path><path id="line_deee9103a6eb9cc8" d="M 359.1875 206.2890625 L 359.1875 206.2890625 C 384.1875 206.2890625 384.1875 238.2265625 395.1875 238.2265625" p="e54ab43ac6879631" stroke="#A1633A" stroke-linecap="round" fill="none" stroke-width="2"></path><path id="line_277f8e79811d9f9e" d="M 445.1875 238.2265625 L 445.1875 238.2265625 C 470.1875 238.2265625 470.1875 238.2265625 481.1875 238.2265625" p="deee9103a6eb9cc8" stroke="#A1633A" stroke-linecap="round" fill="none" stroke-width="2"></path><path id="line_4b1aa5adf77038b3" d="M 59.1875 308.015625 L 59.1875 308.015625 C 84.1875 308.015625 84.1875 329.9453125 95.1875 329.9453125" p="39788f99a532b2da" stroke="#A1633A" stroke-linecap="round" fill="none" stroke-width="2"></path><path id="line_afc135cd340681a3" d="M 209.1875 329.9453125 L 209.1875 329.9453125 C 234.1875 329.9453125 234.1875 290.0859375 245.1875 290.0859375" p="4b1aa5adf77038b3" stroke="#A1633A" stroke-linecap="round" fill="none" stroke-width="2"></path><path id="line_9eb5bc0c3c217253" d="M 209.1875 329.9453125 L 209.1875 329.9453125 C 234.1875 329.9453125 234.1875 341.9453125 245.1875 341.9453125" p="4b1aa5adf77038b3" stroke="#A1633A" stroke-linecap="round" fill="none" stroke-width="2"></path><path id="line_58aae1023cf80518" d="M 209.1875 329.9453125 L 209.1875 329.9453125 C 234.1875 329.9453125 234.1875 381.8046875 245.1875 381.8046875" p="4b1aa5adf77038b3" stroke="#A1633A" stroke-linecap="round" fill="none" stroke-width="2"></path><path id="line_d274e52ae2f4648d" d="M 59.1875 308.015625 L 59.1875 308.015625 C 84.1875 308.015625 84.1875 451.5859375 105.1875 451.5859375" p="39788f99a532b2da" stroke="#A1633A" stroke-linecap="round" fill="none" stroke-width="2"></path><path id="line_b54c89a2a13a9551" d="M 235.1875 451.5859375 L 235.1875 451.5859375 C 260.1875 451.5859375 260.1875 431.6640625 271.1875 431.6640625" p="d274e52ae2f4648d" stroke="#A1633A" stroke-linecap="round" fill="none" stroke-width="2"></path><path id="line_f55e04a5ad60906f" d="M 393.375 431.6640625 L 393.375 431.6640625 C 418.375 431.6640625 418.375 431.6640625 429.375 431.6640625" p="b54c89a2a13a9551" stroke="#A1633A" stroke-linecap="round" fill="none" stroke-width="2"></path><path id="line_143ad5646362635a" d="M 235.1875 451.5859375 L 235.1875 451.5859375 C 260.1875 451.5859375 260.1875 471.5234375 271.1875 471.5234375" p="d274e52ae2f4648d" stroke="#A1633A" stroke-linecap="round" fill="none" stroke-width="2"></path><path id="line_89b60bff49803608" d="M 489.375 471.5234375 L 489.375 471.5234375 C 514.375 471.5234375 514.375 471.5234375 525.375 471.5234375" p="143ad5646362635a" stroke="#A1633A" stroke-linecap="round" fill="none" stroke-width="2"></path><path id="line_be4c246408628bcc" d="M 59.1875 308.015625 L 59.1875 308.015625 C 84.1875 308.015625 84.1875 561.2421875 95.1875 561.2421875" p="39788f99a532b2da" stroke="#A1633A" stroke-linecap="round" fill="none" stroke-width="2"></path><path id="line_e63fa0cc8a021098" d="M 177.1875 561.2421875 L 177.1875 561.2421875 C 202.1875 561.2421875 202.1875 521.3828125 213.1875 521.3828125" p="be4c246408628bcc" stroke="#A1633A" stroke-linecap="round" fill="none" stroke-width="2"></path><path id="line_b7a3f4b2f82b613a" d="M 263.1875 521.3828125 L 263.1875 521.3828125 C 288.1875 521.3828125 288.1875 521.3828125 299.1875 521.3828125" p="e63fa0cc8a021098" stroke="#A1633A" stroke-linecap="round" fill="none" stroke-width="2"></path><path id="line_75e4966d0e911e18" d="M 177.1875 561.2421875 L 177.1875 561.2421875 C 202.1875 561.2421875 202.1875 561.2421875 213.1875 561.2421875" p="be4c246408628bcc" stroke="#A1633A" stroke-linecap="round" fill="none" stroke-width="2"></path><path id="line_3e49f135de2b67d2" d="M 263.1875 561.2421875 L 263.1875 561.2421875 C 288.1875 561.2421875 288.1875 561.2421875 299.1875 561.2421875" p="75e4966d0e911e18" stroke="#A1633A" stroke-linecap="round" fill="none" stroke-width="2"></path><path id="line_f657dce9c47a9f1e" d="M 177.1875 561.2421875 L 177.1875 561.2421875 C 202.1875 561.2421875 202.1875 601.1015625 213.1875 601.1015625" p="be4c246408628bcc" stroke="#A1633A" stroke-linecap="round" fill="none" stroke-width="2"></path><path id="line_cb253fa1d4c4b848" d="M 263.1875 601.1015625 L 263.1875 601.1015625 C 288.1875 601.1015625 288.1875 601.1015625 299.1875 601.1015625" p="f657dce9c47a9f1e" stroke="#A1633A" stroke-linecap="round" fill="none" stroke-width="2"></path></g><g transform="translate(0.5,0.5)"></g><g class="svg-summary-con" transform="translate(0.5,0.5)"></g><g class="svg-boundary-con" transform="translate(0.5,0.5)"><path id="bo_006a4c081043eb48" stroke-linejoin="round" fill="#004E64" fill-opacity="0.1" stroke="#004E64" stroke-width="2" stroke-dasharray="6,3" d=" M 96 418 C 96 418 96 408 106 408 L 637 408 C 637 408 647 408 647 418 L 647 485 C 647 485 647 495 637 495 L 106 495 C 106 495 96 495 96 485 L 96 418"></path></g></g><g transform="translate(191.5, 30)" id="sdjakdjak1"><g id="subline_7224975a9bb60651" transform="translate(0.5, 0.5)"><path id="line_38d30faa7b091ced" d="M 64.9375 214.2265625 L 64.9375 214.2265625 C 89.9375 214.2265625 89.9375 34.8515625 100.9375 34.8515625" p="7224975a9bb60651" stroke="#A1633A" stroke-linecap="round" fill="none" stroke-width="2"></path><path id="line_c937fe30f0efa8a2" d="M 150.9375 34.8515625 L 150.9375 34.8515625 C 175.9375 34.8515625 175.9375 34.8515625 186.9375 34.8515625" p="38d30faa7b091ced" stroke="#A1633A" stroke-linecap="round" fill="none" stroke-width="2"></path><path id="line_d54d5625c3e2fb50" d="M 460.9375 34.8515625 L 460.9375 34.8515625 C 485.9375 34.8515625 485.9375 14.9296875 496.9375 14.9296875" p="c937fe30f0efa8a2" stroke="#A1633A" stroke-linecap="round" fill="none" stroke-width="2"></path><path id="line_15e5eb050ab93ebd" d="M 460.9375 34.8515625 L 460.9375 34.8515625 C 485.9375 34.8515625 485.9375 54.7890625 496.9375 54.7890625" p="c937fe30f0efa8a2" stroke="#A1633A" stroke-linecap="round" fill="none" stroke-width="2"></path><path id="line_3589acd3b082525c" d="M 64.9375 214.2265625 L 64.9375 214.2265625 C 89.9375 214.2265625 89.9375 194.2890625 100.9375 194.2890625" p="7224975a9bb60651" stroke="#A1633A" stroke-linecap="round" fill="none" stroke-width="2"></path><path id="line_974a165d0312d54f" d="M 150.9375 194.2890625 L 150.9375 194.2890625 C 175.9375 194.2890625 175.9375 114.5703125 186.9375 114.5703125" p="3589acd3b082525c" stroke="#A1633A" stroke-linecap="round" fill="none" stroke-width="2"></path><path id="line_4d840981465a1ea7" d="M 303.96875 114.5703125 L 303.96875 114.5703125 C 328.96875 114.5703125 328.96875 94.6484375 339.96875 94.6484375" p="974a165d0312d54f" stroke="#A1633A" stroke-linecap="round" fill="none" stroke-width="2"></path><path id="line_24c6cd752fdcc0a9" d="M 303.96875 114.5703125 L 303.96875 114.5703125 C 328.96875 114.5703125 328.96875 134.5078125 339.96875 134.5078125" p="974a165d0312d54f" stroke="#A1633A" stroke-linecap="round" fill="none" stroke-width="2"></path><path id="line_a4d6ac99935909df" d="M 150.9375 194.2890625 L 150.9375 194.2890625 C 175.9375 194.2890625 175.9375 194.2890625 186.9375 194.2890625" p="3589acd3b082525c" stroke="#A1633A" stroke-linecap="round" fill="none" stroke-width="2"></path><path id="line_6a5c1c76d99fd652" d="M 396.9375 194.2890625 L 396.9375 194.2890625 C 421.9375 194.2890625 421.9375 174.3671875 432.9375 174.3671875" p="a4d6ac99935909df" stroke="#A1633A" stroke-linecap="round" fill="none" stroke-width="2"></path><path id="line_593b99dd9179ce28" d="M 396.9375 194.2890625 L 396.9375 194.2890625 C 421.9375 194.2890625 421.9375 214.2265625 432.9375 214.2265625" p="a4d6ac99935909df" stroke="#A1633A" stroke-linecap="round" fill="none" stroke-width="2"></path><path id="line_30698106488fd0b0" d="M 150.9375 194.2890625 L 150.9375 194.2890625 C 175.9375 194.2890625 175.9375 274.0078125 186.9375 274.0078125" p="3589acd3b082525c" stroke="#A1633A" stroke-linecap="round" fill="none" stroke-width="2"></path><path id="line_bceb20e85b6fa5b1" d="M 444.9375 274.0078125 L 444.9375 274.0078125 C 469.9375 274.0078125 469.9375 254.0859375 480.9375 254.0859375" p="30698106488fd0b0" stroke="#A1633A" stroke-linecap="round" fill="none" stroke-width="2"></path><path id="line_ba47bd465c4346d7" d="M 444.9375 274.0078125 L 444.9375 274.0078125 C 469.9375 274.0078125 469.9375 293.9453125 480.9375 293.9453125" p="30698106488fd0b0" stroke="#A1633A" stroke-linecap="round" fill="none" stroke-width="2"></path><path id="line_66e22076c972922b" d="M 64.9375 214.2265625 L 64.9375 214.2265625 C 89.9375 214.2265625 89.9375 373.6640625 100.9375 373.6640625" p="7224975a9bb60651" stroke="#A1633A" stroke-linecap="round" fill="none" stroke-width="2"></path><path id="line_2945a065bfaec8f9" d="M 150.9375 373.6640625 L 150.9375 373.6640625 C 175.9375 373.6640625 175.9375 333.8046875 186.9375 333.8046875" p="66e22076c972922b" stroke="#A1633A" stroke-linecap="round" fill="none" stroke-width="2"></path><path id="line_4a3977723b0d8420" d="M 150.9375 373.6640625 L 150.9375 373.6640625 C 175.9375 373.6640625 175.9375 373.6640625 186.9375 373.6640625" p="66e22076c972922b" stroke="#A1633A" stroke-linecap="round" fill="none" stroke-width="2"></path><path id="line_b8f7909cd6a7c800" d="M 150.9375 373.6640625 L 150.9375 373.6640625 C 175.9375 373.6640625 175.9375 413.5234375 186.9375 413.5234375" p="66e22076c972922b" stroke="#A1633A" stroke-linecap="round" fill="none" stroke-width="2"></path></g><g transform="translate(0.5,0.5)"></g><g class="svg-summary-con" transform="translate(0.5,0.5)"></g><g class="svg-boundary-con" transform="translate(0.5,0.5)"></g></g><g transform="translate(30, 475)" id="sdjakdjak2"><g id="subline_root" transform="translate(0.5, 0.5)"></g><g transform="translate(0.5,0.5)"></g><g class="svg-summary-con" transform="translate(0.5,0.5)"></g><g class="svg-boundary-con" transform="translate(0.5,0.5)"></g></g><g id="root"><rect x="30" y="475" rx="5px" ry="5px" width="112" height="53" style="fill: #004E64; stroke:none;stroke-width:0px;"></rect><g><text text-anchor="start" align="top" anchor="start" font-size="20px" font-weight="bold" fill="rgb(255, 255, 255)" style="font-size:20px;font-family:'Microsoft YaHei',微软雅黑,Arial;color:#ffffff;font-style:normal;text-align:left;font-weight:bold;"><tspan x="46" y="508"><tspan dx="0">面板数据</tspan></tspan></text></g></g><g transform="translate(321.09375, 598.2265625)"><text id="normal_brand" style="transform:rotate(-30deg);opacity: 0.06; color:#000; font-family: Microsoft Yahei;"><tspan font-size="48" dy="0" x="0"></tspan></text></g></svg>